<?xml version="1.0"?>
<svg xmlns="http://www.w3.org/2000/svg" xmlns:xlink="http://www.w3.org/1999/xlink" xmlns:svgjs="http://svgjs.com/svgjs" version="1.1" width="512" height="512" x="0" y="0" viewBox="0 0 512 512" style="enable-background:new 0 0 512 512" xml:space="preserve" class=""><g><g xmlns="http://www.w3.org/2000/svg"><path d="m50.409 502c0 5.523 4.478 10 10 10h353.79c5.522 0 10-4.477 10-10v-80.692c3.981-2.327 7.078-6.057 8.647-10.751.034-.102.066-.204.098-.307l28.187-94.255c.3-.956.459-1.998.459-3.001v-265.602c.001-26.132-21.259-47.392-47.391-47.392-17.373 0-32.583 9.402-40.834 23.38h-243.476c-2.555 0-5.12 1.038-6.955 2.814l-69.479 67.25c-1.923 1.87-3.045 4.501-3.045 7.186v153.56c0 5.523 4.478 10 10 10s10-4.477 10-10v-143.56h59.484c5.522 0 10-4.477 10-10v-57.25h227.082c-.369 4.434-.168 8.942-.168 13.387v256.227c0 1.003.159 2.044.459 3.001l28.187 94.255c.031.103.063.206.098.308 1.571 4.693 4.667 8.423 8.647 10.75v70.692h-333.79v-149.83c0-5.523-4.478-10-10-10s-10 4.477-10 10zm69.485-411.37h-34.773l34.772-33.653v33.653zm321.697 212.364h-54.781v-236.227h54.781zm-51.356 20h47.928l-8.847 29.583c-5.018-1.07-9.806-1.547-15.117-1.547-5.567 0-10.454.414-15.192 1.295zm23.964 80.129-9.412-31.494c2.896-.413 5.945-.599 9.412-.599 3.293 0 6.276.241 9.35.793zm0-383.123c14.895 0 27.051 11.951 27.385 26.767h-54.76c.003-.134.005-.269.009-.403.008-.208.017-.416.03-.622.013-.221.029-.441.047-.661.022-.26.047-.518.076-.776.018-.161.037-.322.057-.482.042-.323.089-.644.143-.962.016-.097.032-.194.049-.291.067-.375.141-.748.223-1.118.01-.047.02-.094.031-.141.092-.403.192-.802.301-1.197.007-.025.013-.049.02-.074.11-.394.229-.783.356-1.17.013-.039.025-.078.038-.117.115-.345.239-.686.368-1.025.036-.093.069-.187.106-.28 3.989-10.202 13.924-17.448 25.521-17.448z" fill="#0989c3" data-original="#000000" style="" class=""/><path d="m266.211 175.88c-5.522 0-10 4.477-10 10v56.692c0 5.523 4.478 10 10 10h56.692c5.522 0 10-4.477 10-10v-56.692c0-5.523-4.478-10-10-10zm46.692 56.693h-36.692v-36.693h36.692z" fill="#0989c3" data-original="#000000" style="" class=""/><path d="m138.613 349.818c-5.522 0-10 4.477-10 10v56.692c0 5.523 4.478 10 10 10h56.692c5.522 0 10-4.477 10-10v-56.692c0-5.523-4.478-10-10-10zm46.693 56.692h-36.692v-36.692h36.692z" fill="#0989c3" data-original="#000000" style="" class=""/><path d="m347.958 140c0-5.523-4.478-10-10-10h-204.506c-5.522 0-10 4.477-10 10s4.478 10 10 10h204.506c5.522 0 10-4.477 10-10z" fill="#0989c3" data-original="#000000" style="" class=""/><path d="m133.452 328.489h204.506c5.522 0 10-4.477 10-10s-4.478-10-10-10h-204.506c-5.522 0-10 4.477-10 10s4.478 10 10 10z" fill="#0989c3" data-original="#000000" style="" class=""/><path d="m213.48 178.809-49.228 49.227-16.149-16.15c-3.906-3.905-10.236-3.905-14.143 0-3.905 3.905-3.905 10.237 0 14.143l23.221 23.221c3.853 3.852 10.289 3.852 14.143 0l56.299-56.298c3.905-3.905 3.905-10.237 0-14.142-3.904-3.906-10.234-3.906-14.143-.001z" fill="#0989c3" data-original="#000000" style="" class=""/><path d="m330.833 352.944-49.228 49.227-16.149-16.15c-3.906-3.905-10.236-3.905-14.143 0-3.905 3.905-3.905 10.237 0 14.143l23.221 23.221c3.853 3.852 10.289 3.852 14.143 0l56.299-56.298c3.905-3.905 3.905-10.237 0-14.142-3.905-3.906-10.235-3.906-14.143-.001z" fill="#0989c3" data-original="#000000" style="" class=""/><path d="m52.1 303.57c2.992 4.565 9.35 5.753 13.86 2.76 4.546-3.016 5.764-9.332 2.76-13.86-3.016-4.545-9.334-5.764-13.86-2.76-4.5 2.986-5.835 9.374-2.76 13.86z" fill="#0989c3" data-original="#000000" style="" class=""/></g></g></svg>
