<?xml version="1.0"?>
<svg xmlns="http://www.w3.org/2000/svg" xmlns:xlink="http://www.w3.org/1999/xlink" xmlns:svgjs="http://svgjs.com/svgjs" version="1.1" width="512" height="512" x="0" y="0" viewBox="0 0 64 64" style="enable-background:new 0 0 512 512" xml:space="preserve" class=""><g><g xmlns="http://www.w3.org/2000/svg" id="Learning-Lecture-Education-Online-Book"><path d="m61 19v4h-12v-1a3 3 0 0 1 3-3z" fill="#0989c3" data-original="#bddbff" style=""/><path d="m51 49v4h-12v-4h3 6z" fill="#0989c3" data-original="#bddbff" style=""/><path d="m49 22v1h-12v-4h9a3 3 0 0 1 3 3z" fill="#0989c3" data-original="#bddbff" style=""/><path d="m12 49h-2v4h-4v-9.13a6 6 0 0 1 3.52-5.47l4.8-2.18 2.68 2.78 3-3 3 3 2.68-2.78 4.8 2.18a5.644 5.644 0 0 1 1.52 1v2.6a2.006 2.006 0 0 0 2 2v9h-4v-4h-6a3.995 3.995 0 0 0 -4 4 3.995 3.995 0 0 0 -4-4z" fill="#0989c3" data-original="#bddbff" style=""/><path d="m56 27h-22a2.006 2.006 0 0 0 -2 2v13a2.006 2.006 0 0 0 2 2h8v-5h6v5h8a2.006 2.006 0 0 0 2-2v-13a2.006 2.006 0 0 0 -2-2z" fill="#0989c3" data-original="#bddbff" style=""/><path d="m32 13-5 1.67-7 2.33-7-2.33-5-1.67 12-4z" fill="#0989c3" data-original="#bddbff" style=""/><path d="m27 19v1h-14v-1-4.33l7 2.33 7-2.33z" fill="#0989c3" data-original="#bddbff" style=""/><path d="m25.68 36.22-2.68 2.78-3-3h1l2-1z" fill="#0989c3" data-original="#bddbff" style=""/><path d="m20 36-3 3-2.68-2.78 2.68-1.22 2 1z" fill="#0989c3" data-original="#bddbff" style=""/><g fill="#3d9ae2"><path d="m61 52h-9v-3a1 1 0 0 0 -1-1h-2v-3h7a3.009 3.009 0 0 0 3-3v-13a3.009 3.009 0 0 0 -3-3h-22a3.009 3.009 0 0 0 -3 3v13a3.009 3.009 0 0 0 3 3h7v3h-2a1 1 0 0 0 -1 1v3h-3v-5h-2v5h-2v-3a1 1 0 0 0 -1-1h-1v-5h-2v5h-3a4.994 4.994 0 0 0 -4 2.03 4.994 4.994 0 0 0 -4-2.03h-3v-5h-2v5h-1a1 1 0 0 0 -1 1v3h-2v-8.13a5.018 5.018 0 0 1 2.93-4.56l4.16-1.89 2.19 2.27a.97.97 0 0 0 .71.31h.01a1.033 1.033 0 0 0 .71-.29l2.29-2.3 2.29 2.3a1.033 1.033 0 0 0 .71.29h.01a.97.97 0 0 0 .71-.31l2.19-2.27 2.68 1.22.82-1.82-5.41-2.46v-2.44a8.06 8.06 0 0 0 3.74-4.92h.26a3.009 3.009 0 0 0 3-3 3 3 0 0 0 -3-3v-5.61l3-1v4.61h2v-6a1.014 1.014 0 0 0 -.68-.95l-12-4a1 1 0 0 0 -.64 0l-12 4a1 1 0 0 0 0 1.9l4.32 1.44v5.61a3 3 0 0 0 -3 3 3.009 3.009 0 0 0 3 3h.26a8.06 8.06 0 0 0 3.74 4.92v2.44l-6.89 3.13a7.025 7.025 0 0 0 -4.11 6.38v8.13h-2a1 1 0 0 0 -1 1v4a1 1 0 0 0 1 1h2v3a1 1 0 0 0 1 1h52a1 1 0 0 0 1-1v-3h2a1 1 0 0 0 1-1v-4a1 1 0 0 0 -1-1zm-49-27a1 1 0 0 1 -1-1 .949.949 0 0 1 .31-.71.928.928 0 0 1 .69-.29zm5.01 12.57-.99-1.03.96-.43 1 .5zm4.99-3.19-1.24.62h-1.52l-1.24-.62v-1.64a7.822 7.822 0 0 0 4 0zm.99 3.19-.97-.96 1-.5.96.43zm3.01-18.57h-12v-2.95l5.68 1.9a1.049 1.049 0 0 0 .64 0l5.68-1.9zm2.71 4.31a.928.928 0 0 1 .29.69 1 1 0 0 1 -1 1v-2a.949.949 0 0 1 .71.31zm-17.55-10.31 8.84-2.95 8.84 2.95-8.84 2.95zm2.84 12v-4h12v4a6 6 0 0 1 -12 0zm20 18a1 1 0 0 1 -1-1v-13a1 1 0 0 1 1-1h22a1 1 0 0 1 1 1v13a1 1 0 0 1 -1 1h-7v-4a1 1 0 0 0 -1-1h-6a1 1 0 0 0 -1 1v4zm13-3v8h-4v-8zm-7 10h10v2h-10zm-16 0h5v2h-7.83a3.014 3.014 0 0 1 2.83-2zm-13 0h5a3.014 3.014 0 0 1 2.83 2h-7.83zm46 10h-50v-2h50zm3-4h-56v-2h56z" fill="#3d9ae2" data-original="#3d9ae2" style=""/><path d="m16 23h2v2h-2z" fill="#3d9ae2" data-original="#3d9ae2" style=""/><path d="m22 23h2v2h-2z" fill="#3d9ae2" data-original="#3d9ae2" style=""/><path d="m61 2h-9a3.967 3.967 0 0 0 -3 1.38 3.967 3.967 0 0 0 -3-1.38h-9a1 1 0 0 0 -1 1v20a1 1 0 0 0 1 1h24a1 1 0 0 0 1-1v-20a1 1 0 0 0 -1-1zm-23 20v-2h8a2.006 2.006 0 0 1 2 2zm10-3.44a3.906 3.906 0 0 0 -2-.56h-8v-14h8a2.006 2.006 0 0 1 2 2zm12 3.44h-10a2.006 2.006 0 0 1 2-2h8zm0-4h-8a3.906 3.906 0 0 0 -2 .56v-12.56a2.006 2.006 0 0 1 2-2h8z" fill="#3d9ae2" data-original="#3d9ae2" style=""/><path d="m40 10h6v2h-6z" fill="#3d9ae2" data-original="#3d9ae2" style=""/><path d="m40 6h6v2h-6z" fill="#3d9ae2" data-original="#3d9ae2" style=""/><path d="m52 6h6v2h-6z" fill="#3d9ae2" data-original="#3d9ae2" style=""/><path d="m40 14h6v2h-6z" fill="#3d9ae2" data-original="#3d9ae2" style=""/><path d="m52 10h6v2h-6z" fill="#3d9ae2" data-original="#3d9ae2" style=""/><path d="m52 14h6v2h-6z" fill="#3d9ae2" data-original="#3d9ae2" style=""/></g></g></g></svg>
