<?xml version="1.0"?>
<svg xmlns="http://www.w3.org/2000/svg" xmlns:xlink="http://www.w3.org/1999/xlink" xmlns:svgjs="http://svgjs.com/svgjs" version="1.1" width="512" height="512" x="0" y="0" viewBox="0 0 511.994 511.994" style="enable-background:new 0 0 512 512" xml:space="preserve"><g><g xmlns="http://www.w3.org/2000/svg"><path d="m469.458 42.523c-27.421-27.42-63.875-42.52-102.654-42.52-.002 0-.008 0-.01 0-38.781.003-75.24 15.106-102.663 42.529l-70.48 70.48c-14.015 14.016-24.799 30.337-32.098 48.548-18.21 7.297-34.529 18.08-48.545 32.095l-70.483 70.484c-27.422 27.424-42.525 63.882-42.525 102.661s15.103 75.237 42.524 102.659c27.426 27.426 63.887 42.531 102.667 42.532h.005c38.775 0 75.234-15.102 102.655-42.523l70.483-70.484c14.013-14.012 24.795-30.329 32.093-48.537 18.218-7.31 34.54-18.097 48.549-32.107l70.48-70.48c11.357-11.357 20.667-24.354 27.67-38.63 1.824-3.719.288-8.212-3.431-10.037-3.719-1.826-8.213-.288-10.036 3.43-6.274 12.791-14.622 24.441-24.811 34.63l-70.48 70.48c-9.451 9.451-20.075 17.259-31.706 23.342 2.789-11.333 4.203-22.968 4.203-34.76 0-9.094-.86-18.2-2.552-27.122l66.242-66.242c15.407-15.407 23.893-35.921 23.893-57.762s-8.485-42.355-23.893-57.762c-15.404-15.404-35.915-23.887-57.755-23.885-21.841.001-42.354 8.487-57.761 23.895l-70.483 70.484c-17.189 17.188-25.772 40.972-23.55 65.254 1.737 18.969 10.097 36.818 23.54 50.261 11.897 11.898 27.238 19.803 43.742 22.669.078 17.009-6.293 33.33-17.967 45.782-22.68-5.711-43.379-17.459-60.074-34.154-17.651-17.651-29.791-39.807-35.106-64.07-5.394-24.647-3.586-50.125 5.228-73.678 6.536-17.469 16.593-33.068 29.89-46.365l70.48-70.48c24.589-24.59 57.282-38.133 92.057-38.136h.009c34.771 0 67.462 13.541 92.047 38.126 24.598 24.598 38.144 57.291 38.144 92.057 0 10.402-1.237 20.764-3.677 30.797-.979 4.025 1.49 8.082 5.515 9.06 4.027.98 8.082-1.491 9.061-5.515 2.722-11.193 4.102-22.748 4.102-34.342-.003-38.774-15.109-75.233-42.539-102.664zm-149.811 55.52c12.573-12.574 29.32-19.5 47.154-19.501 17.833-.001 34.576 6.921 47.146 19.492 12.575 12.575 19.5 29.321 19.5 47.156s-6.925 34.581-19.5 47.156l-59.924 59.924c-6.988-22.019-19.158-42.091-35.688-58.622-16.522-16.522-36.59-28.691-58.608-35.686zm-88.042 133.57c11.762 2.885 22.604 8.927 31.217 17.547 8.625 8.625 14.668 19.467 17.551 31.223-11.753-2.886-22.595-8.93-31.219-17.553-8.617-8.617-14.66-19.459-17.549-31.217zm-37.964 86.727c16.536 16.536 36.607 28.707 58.621 35.692l-59.921 59.921c-12.569 12.57-29.312 19.492-47.143 19.492-.001 0-.004 0-.005 0-17.834-.001-34.581-6.927-47.156-19.502-13.864-13.865-20.885-33.072-19.259-52.698.342-4.128-2.728-7.751-6.855-8.094-4.13-.331-7.752 2.727-8.094 6.855-1.99 24.029 6.612 47.554 23.602 64.542 15.408 15.408 35.922 23.894 57.762 23.896h.006c21.837 0 42.348-8.483 57.75-23.886l70.478-70.478c17.203-17.192 25.781-40.98 23.538-65.251-1.718-18.962-10.076-36.817-23.534-50.275-11.885-11.894-27.225-19.797-43.743-22.665-.063-17.014 6.314-33.337 17.984-45.787 22.686 5.726 43.379 17.472 60.057 34.15 17.668 17.668 29.807 39.829 35.106 64.095 2.012 9.162 3.031 18.571 3.031 27.967 0 15.69-2.777 31.068-8.254 45.708-6.535 17.464-16.59 33.06-29.884 46.353l-70.484 70.484c-24.589 24.589-57.28 38.131-92.053 38.129-34.773-.001-67.468-13.545-92.06-38.139-24.589-24.587-38.131-57.278-38.131-92.049s13.542-67.463 38.132-92.052l70.483-70.484c9.458-9.458 20.085-17.266 31.714-23.343-4.98 20.206-5.563 41.258-1.656 61.88l-66.243 66.243c-5.8 5.8-10.669 12.396-14.471 19.604-1.933 3.664-.529 8.2 3.135 10.133 1.116.589 2.312.868 3.492.868 2.693 0 5.297-1.455 6.641-4.002 3.1-5.877 7.073-11.259 11.811-15.996l59.917-59.917c6.999 22.021 19.169 42.089 35.686 58.606z" fill="#0989c3" data-original="#000000" style=""/></g></g></svg>
