<?xml version="1.0"?>
<svg xmlns="http://www.w3.org/2000/svg" xmlns:xlink="http://www.w3.org/1999/xlink" xmlns:svgjs="http://svgjs.com/svgjs" version="1.1" width="512" height="512" x="0" y="0" viewBox="0 0 512 512" style="enable-background:new 0 0 512 512" xml:space="preserve"><g><path xmlns="http://www.w3.org/2000/svg" d="m248 221.65625h16v16h-16zm0 0" fill="#0989c3" data-original="#000000" style=""/><path xmlns="http://www.w3.org/2000/svg" d="m480 445.65625v-232c0-13.253906-10.746094-24-24-24h-192v-56h-16v56h-192c-13.253906 0-24 10.746094-24 24v232h-32v24c.0273438 22.082031 17.917969 39.972656 40 40h432c22.082031-.027344 39.972656-17.917969 40-40v-24zm-432-232c0-4.417969 3.582031-8 8-8h400c4.417969 0 8 3.582031 8 8v232h-16v-224h-168v16h152v208h-80v-20.914062c-.03125-9.992188-6.226562-18.933594-15.574219-22.46875l-48.425781-18.160157v-24.65625l8-6.097656v-67.703125c0-13.253906-10.746094-24-24-24h-23.015625c-23.066406-.027344-43.179687 15.679688-48.746094 38.0625l-2.484375 9.9375h18.246094v43.703125l8 6.097656v24.65625l-48.414062 18.160157c-9.355469 3.53125-15.554688 12.472656-15.585938 22.46875v20.914062h-80v-208h152v-16h-168v224h-16zm128 232v-20.914062c0-3.332032 2.070312-6.316407 5.191406-7.484376l45.777344-17.203124c4.609375 7.355468 12.386719 12.140624 21.03125 12.9375v24.664062h16v-24.664062c8.644531-.796876 16.421875-5.582032 21.03125-12.9375l45.785156 17.167968c3.117188 1.175782 5.183594 4.15625 5.183594 7.488282v20.945312h-48v8c0 4.417969-3.582031 8-8 8h-48c-4.417969 0-8-3.582031-8-8v-8zm88-88h-16l-16-12.214844v-35.785156h32v-16h-44c6.265625-9.96875 17.21875-16.015625 28.992188-16h23.007812c4.417969 0 8 3.582031 8 8v59.785156zm8 13.992188v17.808593c-.097656 1.40625-1.34375 8.199219-16 8.199219s-15.910156-6.855469-16-8v-18.007812l2.632812 2.007812h26.734376zm224 98.007812c0 13.253906-10.746094 24-24 24h-432c-13.253906 0-24-10.746094-24-24v-8h193.367188c3.402343 9.582031 12.464843 15.988281 22.632812 16h48c10.167969-.011719 19.230469-6.417969 22.632812-16h193.367188zm0 0" fill="#0989c3" data-original="#000000" style=""/><path xmlns="http://www.w3.org/2000/svg" d="m134.742188 160c-40.992188-41.085938-40.992188-107.601562 0-148.6875l-11.308594-11.3125c-47.246094 47.332031-47.246094 123.980469 0 171.3125zm0 0" fill="#0989c3" data-original="#000000" style=""/><path xmlns="http://www.w3.org/2000/svg" d="m154.609375 149.976562 11.3125-11.3125c-29.226563-29.296874-29.226563-76.71875 0-106.015624l-11.3125-11.3125c-35.476563 35.542968-35.476563 93.097656 0 128.640624zm0 0" fill="#0989c3" data-original="#000000" style=""/><path xmlns="http://www.w3.org/2000/svg" d="m197.097656 117.335938c-17.464844-17.511719-17.464844-45.847657 0-63.359376l-11.3125-11.3125c-23.707031 23.761719-23.707031 62.222657 0 85.984376zm0 0" fill="#0989c3" data-original="#000000" style=""/><path xmlns="http://www.w3.org/2000/svg" d="m377.257812 160 11.308594 11.3125c47.246094-47.332031 47.246094-123.980469 0-171.3125l-11.308594 11.3125c40.992188 41.085938 40.992188 107.601562 0 148.6875zm0 0" fill="#0989c3" data-original="#000000" style=""/><path xmlns="http://www.w3.org/2000/svg" d="m357.390625 149.976562c35.476563-35.542968 35.476563-93.097656 0-128.640624l-11.3125 11.3125c29.226563 29.296874 29.226563 76.71875 0 106.015624zm0 0" fill="#0989c3" data-original="#000000" style=""/><path xmlns="http://www.w3.org/2000/svg" d="m326.214844 128.648438c23.707031-23.761719 23.707031-62.222657 0-85.984376l-11.3125 11.3125c17.464844 17.511719 17.464844 45.847657 0 63.359376zm0 0" fill="#0989c3" data-original="#000000" style=""/><path xmlns="http://www.w3.org/2000/svg" d="m256 117.65625c17.671875 0 32-14.328125 32-32s-14.328125-32-32-32-32 14.328125-32 32 14.328125 32 32 32zm0-48c8.835938 0 16 7.164062 16 16s-7.164062 16-16 16-16-7.164062-16-16 7.164062-16 16-16zm0 0" fill="#0989c3" data-original="#000000" style=""/></g></svg>
