<svg id="Capa_1" enable-background="new 0 0 512 512" height="512" viewBox="0 0 512 512" width="512" xmlns="http://www.w3.org/2000/svg"><g><g><path d="m0 256c0 141.385 114.615 256 256 256l33.642-256-33.642-256c-141.385 0-256 114.615-256 256z" fill="#fff083"/><path d="m256 0v512c141.385 0 256-114.615 256-256s-114.615-256-256-256z" fill="#ffda2d"/></g><g><g><path d="m282.545 212.045c0-40.996 33.352-74.348 74.348-74.348s74.348 33.352 74.348 74.348-33.352 74.348-74.348 74.348-74.348-33.353-74.348-74.348z" fill="#5d519d"/></g><g><path d="m347.276 187.123c0-21.705 17.658-39.363 39.363-39.363 20.818 0 37.943 16.242 39.306 36.72.058.873.057 1.756.057 2.643 0 21.705-17.658 39.363-39.363 39.363s-39.363-17.659-39.363-39.363z" fill="#e7ffff"/></g><g><path d="m425.945 184.48 7.424-30.052-115.351-31.66c-4.958-1.186-8.421-5.574-8.421-10.672v-14.466h-30v14.466c0 19.035 12.93 35.422 31.443 39.85z" fill="#ffb64c"/></g><g><path d="m294.95 239.905c0-20.299 16.515-36.814 36.814-36.814 20.3 0 36.814 16.515 36.814 36.814s-16.515 36.814-36.814 36.814c-20.299.001-36.814-16.514-36.814-36.814z" fill="#7270d5"/></g></g><g><g><path d="m158.241 286.393c-40.996 0-74.348-33.353-74.348-74.348s33.352-74.348 74.348-74.348 74.348 33.352 74.348 74.348-33.352 74.348-74.348 74.348z" fill="#7270d5"/></g><g><path d="m128.495 226.486c-21.705 0-39.363-17.658-39.363-39.363 0-.887-.001-1.77.057-2.643 1.363-20.478 18.488-36.72 39.306-36.72 21.705 0 39.363 17.658 39.363 39.363s-17.658 39.363-39.363 39.363z" fill="#e7ffff"/></g><g><path d="m89.189 184.48-7.424-30.052 115.351-31.66c4.958-1.186 8.421-5.574 8.421-10.672v-14.466h30v14.466c0 19.035-12.93 35.422-31.443 39.85z" fill="#ffda2d"/></g><g><path d="m183.37 276.72c-20.3 0-36.814-16.515-36.814-36.814s16.515-36.814 36.814-36.814 36.814 16.515 36.814 36.814-16.515 36.814-36.814 36.814z" fill="#7d89e5"/></g></g><g><path d="m245.053 337.251c-33.684 0-61.088 27.404-61.088 61.088h30c0-17.142 13.946-31.088 31.088-31.088h10.947l17.817-9.457-17.817-20.543z" fill="#ffda2d"/><path d="m266.947 337.251h-10.947v30h10.947c17.142 0 31.088 13.946 31.088 31.088h30c0-33.684-27.405-61.088-61.088-61.088z" fill="#ffb64c"/></g></g></svg>