<?xml version="1.0"?>
<svg xmlns="http://www.w3.org/2000/svg" xmlns:xlink="http://www.w3.org/1999/xlink" xmlns:svgjs="http://svgjs.com/svgjs" version="1.1" width="512" height="512" x="0" y="0" viewBox="0 0 512 512" style="enable-background:new 0 0 512 512" xml:space="preserve" class=""><g><g xmlns="http://www.w3.org/2000/svg" id="Outline"><path d="m200 435.313v12.687a8 8 0 0 0 8 8h184a8 8 0 0 0 8-8v-64a8 8 0 0 0 -8-8h-184a8 8 0 0 0 -8 8v12.687l-13.657 13.656a8 8 0 0 0 0 11.314zm13.657-29.656a8 8 0 0 0 2.343-5.657v-8h168v48h-168v-8a8 8 0 0 0 -2.343-5.657l-10.343-10.343z" fill="#0989c3" data-original="#000000" style="" class=""/><path d="m200 331.313v12.687a8 8 0 0 0 8 8h184a8 8 0 0 0 8-8v-64a8 8 0 0 0 -8-8h-184a8 8 0 0 0 -8 8v12.687l-13.657 13.656a8 8 0 0 0 0 11.314zm13.657-29.656a8 8 0 0 0 2.343-5.657v-8h168v48h-168v-8a8 8 0 0 0 -2.343-5.657l-10.343-10.343z" fill="#0989c3" data-original="#000000" style="" class=""/><path d="m200 227.314v12.686a8 8 0 0 0 8 8h184a8 8 0 0 0 8-8v-64a8 8 0 0 0 -8-8h-184a8 8 0 0 0 -8 8v12.686l-13.657 13.657a8 8 0 0 0 0 11.314zm13.657-29.657a8 8 0 0 0 2.343-5.657v-8h168v48h-168v-8a8 8 0 0 0 -2.343-5.657l-10.343-10.343z" fill="#0989c3" data-original="#000000" style="" class=""/><path d="m272 408h96v16h-96z" fill="#0989c3" data-original="#000000" style="" class=""/><path d="m232 408h24v16h-24z" fill="#0989c3" data-original="#000000" style="" class=""/><path d="m272 304h96v16h-96z" fill="#0989c3" data-original="#000000" style="" class=""/><path d="m232 304h24v16h-24z" fill="#0989c3" data-original="#000000" style="" class=""/><path d="m272 200h96v16h-96z" fill="#0989c3" data-original="#000000" style="" class=""/><path d="m232 200h24v16h-24z" fill="#0989c3" data-original="#000000" style="" class=""/><path d="m112 416a24.039 24.039 0 0 0 16 22.624v17.376h16v-17.376a24 24 0 0 0 0-45.248v-58.752a24 24 0 0 0 0-45.248v-58.752a24 24 0 0 0 0-45.248v-17.376h-16v17.376a24 24 0 0 0 0 45.248v58.752a24 24 0 0 0 0 45.248v58.752a24.039 24.039 0 0 0 -16 22.624zm24 8a8 8 0 1 1 8-8 8.009 8.009 0 0 1 -8 8zm0-224a8 8 0 1 1 -8 8 8.009 8.009 0 0 1 8-8zm0 104a8 8 0 1 1 -8 8 8.009 8.009 0 0 1 8-8z" fill="#0989c3" data-original="#000000" style="" class=""/><path d="m472 48h-24v-8a24 24 0 0 0 -48 0v8h-64v-8a24 24 0 0 0 -48 0v8h-64v-8a24 24 0 0 0 -48 0v8h-64v-8a24 24 0 0 0 -48 0v8h-24a24.028 24.028 0 0 0 -24 24v400a24.028 24.028 0 0 0 24 24h432a24.028 24.028 0 0 0 24-24v-400a24.028 24.028 0 0 0 -24-24zm-56-8a8 8 0 0 1 16 0v32a8 8 0 0 1 -16 0zm-112 0a8 8 0 0 1 16 0v32a8 8 0 0 1 -16 0zm-112 0a8 8 0 0 1 16 0v32a8 8 0 0 1 -16 0zm-112 0a8 8 0 0 1 16 0v32a8 8 0 0 1 -16 0zm400 432a8.009 8.009 0 0 1 -8 8h-432a8.009 8.009 0 0 1 -8-8v-328h448zm0-344h-448v-56a8.009 8.009 0 0 1 8-8h24v8a24 24 0 0 0 48 0v-8h64v8a24 24 0 0 0 48 0v-8h64v8a24 24 0 0 0 48 0v-8h64v8a24 24 0 0 0 48 0v-8h24a8.009 8.009 0 0 1 8 8z" fill="#0989c3" data-original="#000000" style="" class=""/></g></g></svg>
